<svg width="200" height="112" viewBox="0 0 200 112" fill="none" xmlns="http://www.w3.org/2000/svg">
<rect x="0.441176" y="0.441176" width="199.118" height="111.118" rx="7.55882" fill="white"/>
<rect x="0.441176" y="0.441176" width="199.118" height="111.118" rx="7.55882" stroke="#CCCCCC" stroke-width="0.882353" stroke-linecap="round" stroke-linejoin="round"/>
<line x1="24.5" y1="17" x2="24.5" y2="95" stroke="#6A6A6A"/>
<rect x="38" y="56" width="10" height="35" fill="#EBD45B"/>
<rect x="38" y="62" width="10" height="29" fill="#F2A938"/>
<rect x="38" y="67" width="10" height="24" fill="#EA7E2E"/>
<rect x="38" y="72" width="10" height="19" fill="#29C081"/>
<rect x="38" y="78" width="10" height="13" fill="#4551BD"/>
<rect x="60" y="40" width="10" height="51" fill="#EBD45B"/>
<rect x="60" y="49" width="10" height="42" fill="#F2A938"/>
<rect x="60" y="56" width="10" height="35" fill="#EA7E2E"/>
<rect x="60" y="63" width="10" height="28" fill="#29C081"/>
<rect x="60" y="72" width="10" height="19" fill="#4551BD"/>
<rect x="82" y="24" width="10" height="67" fill="#EBD45B"/>
<rect x="82" y="36" width="10" height="55" fill="#F2A938"/>
<rect x="82" y="45" width="10" height="46" fill="#EA7E2E"/>
<rect x="82" y="54" width="10" height="37" fill="#29C081"/>
<rect x="82" y="66" width="10" height="25" fill="#4551BD"/>
<rect x="104" y="56" width="10" height="35" fill="#EBD45B"/>
<rect x="104" y="62" width="10" height="29" fill="#F2A938"/>
<rect x="104" y="67" width="10" height="24" fill="#EA7E2E"/>
<rect x="104" y="72" width="10" height="19" fill="#29C081"/>
<rect x="104" y="78" width="10" height="13" fill="#4551BD"/>
<rect x="126" y="45" width="10" height="46" fill="#EBD45B"/>
<rect x="126" y="53" width="10" height="38" fill="#F2A938"/>
<rect x="126" y="59" width="10" height="32" fill="#EA7E2E"/>
<rect x="126" y="66" width="10" height="25" fill="#29C081"/>
<rect x="126" y="74" width="10" height="17" fill="#4551BD"/>
<rect x="148" y="17" width="10" height="74" fill="#EBD45B"/>
<rect x="148" y="30" width="10" height="61" fill="#F2A938"/>
<rect x="148" y="40" width="10" height="51" fill="#EA7E2E"/>
<rect x="148" y="51" width="10" height="40" fill="#29C081"/>
<rect x="148" y="64" width="10" height="27" fill="#4551BD"/>
<line x1="180" y1="91.5" x2="20" y2="91.5" stroke="#6A6A6A"/>
</svg>
