<svg viewBox="0 0 48 48" width="24" height="24" fill="none" xmlns="http://www.w3.org/2000/svg"><path d="M41.9985 6H5.99854C4.89397 6 3.99854 6.89543 3.99854 8V40C3.99854 41.1046 4.89397 42 5.99854 42H41.9985C43.1031 42 43.9985 41.1046 43.9985 40V8C43.9985 6.89543 43.1031 6 41.9985 6Z" fill="none" stroke="#333333" stroke-width="2" stroke-linecap="round" stroke-linejoin="round"/><path d="M17.4985 18V42" fill="none" stroke="#1278D9" stroke-width="2" stroke-linecap="round" stroke-linejoin="round"/><path d="M30.5015 18V42" fill="none" stroke="#1278D9" stroke-width="2" stroke-linecap="round" stroke-linejoin="round"/><path d="M3.99854 30H43.9985" fill="none" stroke="#1278D9" stroke-width="2" stroke-linecap="round" stroke-linejoin="round"/><path d="M43.9985 8V40C43.9985 41.1046 43.1031 42 41.9985 42H5.99854C4.89397 42 3.99854 41.1046 3.99854 40V8" fill="none" stroke="#333333" stroke-width="2" stroke-linecap="round" stroke-linejoin="round"/><path d="M3.99854 18H43.9985" fill="none" stroke="#333333" stroke-width="2" stroke-linecap="round" stroke-linejoin="round"/></svg>